<?xml version="1.0" standalone="no"?>
<!DOCTYPE svg PUBLIC "-//W3C//DTD SVG 20010904//EN"
 "http://www.w3.org/TR/2001/REC-SVG-20010904/DTD/svg10.dtd">
<svg version="1.0" xmlns="http://www.w3.org/2000/svg"
  viewBox="0 0 300.000000 169.000000"
 preserveAspectRatio="xMidYMid meet">
<metadata>
Created by potrace 1.10, written by Peter Selinger 2001-2011
</metadata>
<g transform="translate(0.000000,169.000000) scale(0.100000,-0.100000)"
fill="#ffffff" stroke="none">
<path d="M1402 1549 c-236 -36 -437 -200 -518 -423 -112 -308 27 -657 319
-801 199 -98 386 -98 585 0 165 82 290 235 338 415 21 79 23 234 5 310 -79
328 -401 548 -729 499z m243 -54 c174 -46 328 -172 401 -330 90 -194 72 -422
-47 -600 -114 -170 -298 -268 -504 -268 -100 0 -170 16 -260 58 -142 68 -264
201 -315 346 -31 89 -39 259 -15 349 56 217 223 387 436 444 73 20 230 20 304
1z"/>
<path d="M1393 1490 c-213 -39 -400 -203 -463 -408 -112 -363 142 -739 520
-769 237 -18 467 111 570 321 66 134 83 256 55 391 -43 204 -206 384 -404 445
-75 24 -205 33 -278 20z m201 -17 c4 -4 19 -9 34 -10 33 -4 102 -35 102 -46 0
-5 4 -6 9 -2 16 9 62 -17 56 -33 -3 -9 0 -12 9 -9 8 3 16 3 18 -1 2 -4 17 -14
33 -22 17 -9 31 -25 33 -38 2 -12 8 -22 15 -22 15 0 57 -41 57 -55 0 -7 10
-23 23 -36 25 -26 71 -142 64 -162 -2 -7 2 -26 10 -44 14 -36 16 -117 3 -148
-9 -20 -9 -20 -11 0 -1 11 -3 29 -5 40 -2 11 -7 36 -10 55 -11 61 -27 70 -119
70 -58 0 -86 4 -94 14 -19 22 -95 38 -127 26 -20 -8 -29 -8 -34 1 -6 8 -13 8
-27 0 -11 -5 -24 -7 -28 -3 -3 4 -12 7 -18 7 -7 0 -11 9 -9 19 2 10 0 25 -4
35 -11 24 -11 33 -2 66 10 38 1 65 -22 65 -10 0 -20 7 -24 15 -6 17 -28 19
-54 6 -9 -5 -25 -12 -34 -15 -14 -4 -18 -17 -18 -61 0 -30 -4 -55 -10 -55 -6
0 -6 -9 0 -26 14 -36 12 -47 -5 -40 -9 3 -15 0 -15 -8 0 -9 -13 -11 -52 -6
-71 10 -129 1 -154 -22 -18 -16 -30 -18 -91 -12 -107 10 -140 -20 -144 -130
-3 -59 -18 -89 -20 -39 -1 15 -3 48 -4 73 -5 89 44 239 103 319 37 50 122 129
155 144 15 6 27 15 27 18 0 4 12 11 28 18 15 6 41 16 57 23 76 30 278 52 299
31z m-78 -238 c4 -8 12 -15 20 -15 15 0 20 -25 7 -33 -5 -3 -7 -43 -5 -89 l3
-83 125 4 c120 3 124 2 124 -18 0 -20 5 -21 105 -21 l105 0 0 -39 c0 -21 3
-66 6 -100 l7 -61 -75 0 c-49 0 -95 7 -133 20 -52 18 -84 20 -310 20 -226 0
-258 -2 -310 -20 -38 -13 -84 -20 -133 -20 l-75 0 7 53 c3 28 6 73 6 100 l0
47 105 0 c100 0 105 1 105 21 0 20 4 21 124 17 l124 -3 4 80 c3 44 1 84 -4 90
-13 14 -9 35 6 35 8 0 16 7 20 15 3 8 12 15 21 15 9 0 18 -7 21 -15z m-566
-441 c0 -9 8 -23 18 -30 27 -21 151 -17 240 7 67 18 106 21 302 21 206 0 229
-1 278 -21 64 -26 191 -29 235 -6 l28 15 -7 -33 c-10 -45 -33 -93 -75 -158
-37 -55 -125 -149 -141 -149 -4 0 -16 -7 -27 -16 -26 -23 -142 -70 -202 -83
-115 -25 -249 -3 -370 61 -89 47 -179 131 -225 208 -36 62 -80 200 -63 200 5
0 9 -7 9 -16z"/>
<path d="M1468 1197 c12 -7 20 -15 17 -18 -8 -8 -15 -291 -8 -317 7 -29 31
-28 39 2 3 13 2 91 -3 174 -8 146 -7 152 12 161 17 8 17 10 3 10 -9 1 -20 -4
-24 -10 -4 -8 -9 -8 -17 0 -6 6 -18 11 -26 11 -11 -1 -8 -5 7 -13z m29 -229
c-2 -24 -4 -7 -4 37 0 44 2 63 4 43 2 -21 2 -57 0 -80z"/>
<path d="M1280 981 c0 -5 36 -9 80 -9 44 0 80 4 80 9 0 5 -36 9 -80 9 -44 0
-80 -4 -80 -9z"/>
<path d="M1550 980 c0 -6 32 -9 80 -8 44 1 80 5 80 10 0 4 -36 8 -80 8 -47 0
-80 -4 -80 -10z"/>
<path d="M1205 960 c-53 -5 -56 -6 -25 -12 22 -3 14 -4 -22 -3 l-58 2 0 -73 0
-72 83 22 82 22 2 62 c1 34 1 61 0 60 -1 -1 -29 -4 -62 -8z m45 -71 c0 -22 -4
-39 -10 -39 -5 0 -7 6 -4 14 3 8 1 23 -5 33 -9 15 -10 12 -11 -19 0 -21 -4
-38 -10 -38 -5 0 -10 20 -10 44 0 40 2 44 25 44 22 0 25 -5 25 -39z m-116 -21
c4 -28 3 -48 -2 -48 -11 0 -25 77 -16 91 9 15 11 10 18 -43z m55 5 l-1 -48 -8
38 c-10 52 -22 60 -14 9 4 -28 3 -42 -5 -42 -6 0 -11 6 -11 14 0 7 -3 28 -6
45 -6 28 -4 31 20 31 25 0 26 -3 25 -47z"/>
<path d="M1720 906 c0 -60 1 -61 46 -70 30 -7 30 -6 32 36 2 32 0 39 -8 28 -5
-8 -10 -25 -10 -38 0 -13 -4 -21 -8 -18 -5 3 -7 19 -4 36 6 40 -5 39 -16 -2
l-9 -33 -4 43 -5 43 56 -7 c30 -3 56 -7 57 -8 7 -5 -12 -86 -20 -86 -6 0 -7
16 -4 40 3 23 1 38 -4 34 -5 -3 -9 -22 -9 -43 0 -36 2 -39 39 -48 l38 -10 2
72 2 73 -48 -4 c-34 -2 -42 -1 -28 6 15 6 5 9 -37 9 l-58 1 0 -54z m152 -43
c-2 -24 -9 -43 -14 -43 -7 0 -8 15 -4 38 3 20 6 44 6 52 0 8 3 10 9 5 4 -6 6
-29 3 -52z"/>
<path d="M1292 887 c1 -51 2 -51 5 -9 3 35 7 41 18 32 7 -6 16 -7 19 -2 3 5
17 7 32 4 19 -3 22 -7 12 -13 -10 -7 -10 -9 0 -9 7 0 15 6 18 14 6 16 34 10
46 -8 4 -6 8 0 8 14 0 24 -2 25 -80 27 l-80 3 2 -53z"/>
<path d="M1540 888 c0 -31 4 -47 10 -43 6 4 8 11 5 16 -4 5 -1 9 4 9 6 0 11 7
11 15 0 8 -5 15 -12 15 -9 0 -8 3 1 13 10 9 15 9 18 1 3 -8 16 -9 41 -3 23 5
38 4 40 -2 3 -6 10 -5 20 3 13 11 15 10 10 -12 -4 -14 -2 -34 2 -45 10 -22 11
-17 13 40 l2 40 -83 1 -82 1 0 -49z"/>
<path d="M1020 911 c0 -5 6 -12 13 -14 9 -4 8 -8 -3 -16 -13 -9 -13 -11 2 -11
9 0 20 -5 24 -11 5 -8 -1 -10 -20 -7 -22 4 -26 2 -26 -18 0 -20 5 -24 30 -24
30 0 30 1 30 55 0 52 -1 55 -25 55 -14 0 -25 -4 -25 -9z"/>
<path d="M1920 866 c0 -56 0 -56 31 -56 l30 0 -3 53 c-3 48 -5 52 -30 55 -28
3 -28 2 -28 -52z m50 -6 c0 -5 -9 -10 -20 -10 -11 0 -20 5 -20 10 0 6 9 10 20
10 11 0 20 -4 20 -10z"/>
<path d="M1204 713 c-3 -12 -4 -28 -1 -35 3 -7 6 -2 6 12 1 19 7 25 26 26 14
1 25 -3 25 -8 0 -6 6 -5 15 2 12 10 15 10 15 0 0 -10 3 -10 15 0 12 10 16 9
21 -4 3 -8 4 -21 1 -28 -3 -8 -6 -5 -6 6 -1 20 -1 20 -17 0 -11 -14 -17 -16
-21 -6 -4 10 -8 10 -19 1 -11 -9 -14 -8 -15 7 0 18 -1 18 -9 -1 -5 -11 -9 -16
-9 -12 -1 5 -11 1 -23 -7 -12 -9 -37 -16 -54 -16 -17 0 -37 -7 -44 -15 -7 -8
-20 -15 -29 -16 -10 0 -11 -2 -3 -6 6 -2 12 -9 12 -15 0 -6 -7 -7 -16 -4 -9 3
-12 2 -9 -5 4 -6 13 -8 20 -5 8 3 19 -2 26 -10 8 -10 28 -15 53 -14 58 3 58 3
40 -25 -9 -13 -14 -30 -11 -37 4 -8 8 -5 12 10 8 24 21 29 28 10 3 -8 6 -6 6
5 1 19 16 23 26 7 3 -5 1 -10 -4 -10 -6 0 -11 -6 -11 -12 1 -7 9 -3 19 9 13
15 25 20 41 16 17 -4 27 0 41 18 10 13 21 20 26 16 4 -5 0 -15 -10 -22 -13 -9
-17 -20 -12 -35 6 -20 4 -21 -66 -18 -51 2 -74 -1 -77 -10 -3 -10 19 -12 90
-11 51 0 98 0 103 -1 6 -1 93 -2 193 -1 142 1 183 4 179 14 -2 6 -10 11 -17 9
-7 -2 -17 3 -22 10 -5 9 -10 10 -15 3 -11 -15 -76 -15 -85 -1 -6 8 -8 7 -8 -1
0 -8 -14 -13 -35 -13 -31 0 -35 3 -35 26 0 24 3 26 33 20 68 -12 78 -13 83 -5
7 12 67 1 76 -14 6 -9 8 -9 8 1 0 21 16 13 28 -15 11 -26 11 -25 7 15 l-5 42
39 0 c21 0 44 6 51 14 6 8 19 12 28 9 15 -4 15 -3 2 6 -13 10 -13 12 0 21 13
8 13 10 -1 10 -9 0 -24 9 -35 21 -11 12 -26 18 -37 15 -28 -7 -67 11 -67 31 0
15 -2 15 -15 -3 -14 -19 -14 -19 -15 1 -1 16 -3 17 -8 4 -11 -25 -41 -9 -31
16 4 11 8 14 8 7 1 -8 6 -10 13 -6 7 4 22 9 34 10 18 2 24 -3 27 -24 3 -23 4
-24 11 -9 6 12 3 24 -7 35 -13 14 -30 16 -104 14 -100 -4 -93 -4 -311 0 -161
3 -163 3 -168 -19z m196 -6 c0 -4 9 -2 20 5 24 15 44 0 34 -26 -6 -15 -7 -15
-20 1 -13 16 -13 16 -8 1 5 -15 0 -17 -35 -14 -46 3 -56 9 -49 28 6 14 58 19
58 5z m100 1 c0 -9 3 -8 10 2 7 12 12 12 22 2 6 -6 20 -12 31 -12 10 0 16 -4
13 -8 -3 -5 -19 -7 -35 -6 -17 1 -31 -2 -31 -6 0 -5 -8 -7 -17 -6 -17 3 -19 8
-14 36 2 15 21 12 21 -2z m125 2 c9 14 35 -6 35 -26 0 -15 -12 -18 -24 -6 -11
10 -30 9 -38 -3 -4 -5 -8 3 -8 19 0 23 3 26 14 17 10 -9 16 -9 21 -1z m54 -23
c0 -21 -1 -21 -9 -2 -12 28 -12 37 0 30 6 -3 10 -16 9 -28z m-104 -27 c-3 -5
-13 -10 -21 -10 -8 0 -12 5 -9 10 3 6 13 10 21 10 8 0 12 -4 9 -10z m-407 -32
c8 -8 12 -8 12 -1 0 12 164 13 176 1 4 -5 2 -8 -5 -8 -7 0 -10 -4 -7 -9 4 -5
0 -12 -6 -14 -7 -3 -5 -6 6 -6 11 -1 16 -4 12 -8 -11 -11 -65 -12 -72 -1 -3 5
-12 4 -20 -3 -11 -9 -14 -8 -14 5 0 9 -4 16 -10 16 -5 0 -10 -7 -10 -16 0 -8
-4 -13 -9 -10 -5 3 -7 15 -4 26 4 15 0 20 -13 20 -16 0 -17 -2 -4 -10 10 -6
11 -10 3 -10 -7 0 -13 -8 -13 -17 0 -14 -2 -15 -9 -4 -6 9 -11 10 -15 2 -10
-15 -22 -14 -40 5 -12 12 -13 20 -6 35 12 22 30 25 48 7z m260 0 c9 -9 12 -9
12 0 0 7 7 12 15 12 8 0 15 -9 15 -20 0 -11 -4 -20 -10 -20 -5 0 -10 -8 -11
-17 0 -16 -1 -16 -8 1 -7 18 -8 18 -14 3 -8 -22 -33 -22 -46 0 -19 35 19 69
47 41z m123 -5 c1 -17 2 -17 6 0 3 11 14 17 34 17 32 0 37 -11 13 -34 -14 -15
-14 -16 0 -16 9 0 16 -5 16 -11 0 -14 -52 -2 -62 14 -5 8 -8 6 -8 -5 0 -29
-20 -20 -21 10 -2 25 -2 26 -6 3 -7 -35 -29 -54 -49 -43 -11 6 -13 11 -5 16 6
4 11 2 11 -4 0 -6 5 -8 11 -4 7 4 9 21 6 40 -5 32 -4 34 24 34 20 0 29 -5 30
-17z m109 -11 c1 -12 5 -10 15 8 14 25 19 21 15 -14 -1 -11 3 -15 9 -12 6 4
11 14 11 22 0 8 4 14 9 14 10 0 25 -50 16 -58 -3 -3 -5 2 -5 11 0 10 -4 17
-10 17 -5 0 -10 -7 -10 -15 0 -13 -4 -14 -22 -4 -27 15 -28 15 -39 -3 -6 -8
-9 0 -9 25 0 23 4 36 10 32 6 -3 10 -14 10 -23z m103 15 c19 12 41 13 54 1 9
-7 13 -7 13 2 0 6 8 10 17 8 26 -5 27 -64 2 -64 -11 0 -19 4 -19 9 0 5 -7 3
-16 -4 -14 -11 -19 -10 -35 10 l-19 23 -1 -23 -1 -24 -8 25 c-9 28 -12 63 -3
42 2 -6 10 -9 16 -5z m-318 -107 c6 9 10 9 16 -1 7 -11 9 -10 9 4 0 9 4 17 10
17 5 0 14 -8 19 -17 8 -13 10 -14 11 -4 0 10 6 8 21 -8 21 -23 20 -39 -2 -25
-7 4 -45 7 -86 7 -40 -1 -73 1 -73 2 0 2 3 10 6 19 8 21 21 20 27 -1 3 -13 5
-10 6 7 2 23 3 24 15 7 10 -13 16 -15 21 -7z"/>
<path d="M1130 605 c0 -8 7 -15 15 -15 8 0 15 7 15 15 0 8 -7 15 -15 15 -8 0
-15 -7 -15 -15z"/>
<path d="M1280 605 c0 -8 9 -15 20 -15 11 0 20 7 20 15 0 8 -9 15 -20 15 -11
0 -20 -7 -20 -15z"/>
<path d="M1390 605 c0 -8 7 -15 15 -15 8 0 15 7 15 15 0 8 -7 15 -15 15 -8 0
-15 -7 -15 -15z"/>
<path d="M1782 608 c5 -15 28 -18 29 -3 0 6 -7 12 -17 13 -10 3 -15 -1 -12
-10z"/>
</g>
</svg>
